<?xml version="1.0" encoding="us-ascii" standalone="no"?><svg xmlns="http://www.w3.org/2000/svg" xmlns:xlink="http://www.w3.org/1999/xlink" contentStyleType="text/css" height="331px" preserveAspectRatio="none" style="width:516px;height:331px;background:#FFFFFF;" version="1.1" viewBox="0 0 516 331" width="516px" zoomAndPan="magnify"><defs/><g><!--cluster Drawpile--><g id="cluster_Drawpile"><path d="M8.5,6 L79.5,6 A3.75,3.75 0 0 1 82,8.5 L89,28.2969 L506.5,28.2969 A2.5,2.5 0 0 1 509,30.7969 L509,321.5 A2.5,2.5 0 0 1 506.5,324 L8.5,324 A2.5,2.5 0 0 1 6,321.5 L6,8.5 A2.5,2.5 0 0 1 8.5,6 " fill="none" style="stroke:#000000;stroke-width:1.5;"/><line style="stroke:#000000;stroke-width:1.5;" x1="6" x2="89" y1="28.2969" y2="28.2969"/><text fill="#000000" font-family="sans-serif" font-size="14" font-weight="bold" lengthAdjust="spacing" textLength="70" x="10" y="20.9951">Drawpile</text></g><!--entity drawdance--><g id="elem_drawdance"><rect fill="#F1F1F1" height="46.2969" rx="2.5" ry="2.5" style="stroke:#181818;stroke-width:0.5;" width="117" x="200.5" y="257.5"/><rect fill="#F1F1F1" height="10" style="stroke:#181818;stroke-width:0.5;" width="15" x="297.5" y="262.5"/><rect fill="#F1F1F1" height="2" style="stroke:#181818;stroke-width:0.5;" width="4" x="295.5" y="264.5"/><rect fill="#F1F1F1" height="2" style="stroke:#181818;stroke-width:0.5;" width="4" x="295.5" y="268.5"/><text fill="#000000" font-family="sans-serif" font-size="14" lengthAdjust="spacing" textLength="77" x="215.5" y="290.4951">drawdance</text></g><!--entity tools--><g id="elem_tools"><rect fill="#F1F1F1" height="46.2969" rx="2.5" ry="2.5" style="stroke:#181818;stroke-width:0.5;" width="76" x="76" y="147"/><rect fill="#F1F1F1" height="10" style="stroke:#181818;stroke-width:0.5;" width="15" x="132" y="152"/><rect fill="#F1F1F1" height="2" style="stroke:#181818;stroke-width:0.5;" width="4" x="130" y="154"/><rect fill="#F1F1F1" height="2" style="stroke:#181818;stroke-width:0.5;" width="4" x="130" y="158"/><text fill="#000000" font-family="sans-serif" font-size="14" lengthAdjust="spacing" textLength="36" x="91" y="179.9951">tools</text></g><!--entity libshared--><g id="elem_libshared"><rect fill="#F1F1F1" height="46.2969" rx="2.5" ry="2.5" style="stroke:#181818;stroke-width:0.5;" width="106" x="353" y="257.5"/><rect fill="#F1F1F1" height="10" style="stroke:#181818;stroke-width:0.5;" width="15" x="439" y="262.5"/><rect fill="#F1F1F1" height="2" style="stroke:#181818;stroke-width:0.5;" width="4" x="437" y="264.5"/><rect fill="#F1F1F1" height="2" style="stroke:#181818;stroke-width:0.5;" width="4" x="437" y="268.5"/><text fill="#000000" font-family="sans-serif" font-size="14" lengthAdjust="spacing" textLength="66" x="368" y="290.4951">libshared</text></g><!--entity libclient--><g id="elem_libclient"><rect fill="#F1F1F1" height="46.2969" rx="2.5" ry="2.5" style="stroke:#181818;stroke-width:0.5;" width="99" x="345.5" y="147"/><rect fill="#F1F1F1" height="10" style="stroke:#181818;stroke-width:0.5;" width="15" x="424.5" y="152"/><rect fill="#F1F1F1" height="2" style="stroke:#181818;stroke-width:0.5;" width="4" x="422.5" y="154"/><rect fill="#F1F1F1" height="2" style="stroke:#181818;stroke-width:0.5;" width="4" x="422.5" y="158"/><text fill="#000000" font-family="sans-serif" font-size="14" lengthAdjust="spacing" textLength="59" x="360.5" y="179.9951">libclient</text></g><!--entity libserver--><g id="elem_libserver"><rect fill="#F1F1F1" height="46.2969" rx="2.5" ry="2.5" style="stroke:#181818;stroke-width:0.5;" width="103" x="207.5" y="147"/><rect fill="#F1F1F1" height="10" style="stroke:#181818;stroke-width:0.5;" width="15" x="290.5" y="152"/><rect fill="#F1F1F1" height="2" style="stroke:#181818;stroke-width:0.5;" width="4" x="288.5" y="154"/><rect fill="#F1F1F1" height="2" style="stroke:#181818;stroke-width:0.5;" width="4" x="288.5" y="158"/><text fill="#000000" font-family="sans-serif" font-size="14" lengthAdjust="spacing" textLength="63" x="222.5" y="179.9951">libserver</text></g><!--entity thinsrv--><g id="elem_thinsrv"><rect fill="#F1F1F1" height="46.2969" rx="2.5" ry="2.5" style="stroke:#181818;stroke-width:0.5;" width="90" x="157" y="41"/><rect fill="#F1F1F1" height="10" style="stroke:#181818;stroke-width:0.5;" width="15" x="227" y="46"/><rect fill="#F1F1F1" height="2" style="stroke:#181818;stroke-width:0.5;" width="4" x="225" y="48"/><rect fill="#F1F1F1" height="2" style="stroke:#181818;stroke-width:0.5;" width="4" x="225" y="52"/><text fill="#000000" font-family="sans-serif" font-size="14" lengthAdjust="spacing" textLength="50" x="172" y="73.9951">thinsrv</text></g><!--entity desktop--><g id="elem_desktop"><rect fill="#F1F1F1" height="46.2969" rx="2.5" ry="2.5" style="stroke:#181818;stroke-width:0.5;" width="100" x="282" y="41"/><rect fill="#F1F1F1" height="10" style="stroke:#181818;stroke-width:0.5;" width="15" x="362" y="46"/><rect fill="#F1F1F1" height="2" style="stroke:#181818;stroke-width:0.5;" width="4" x="360" y="48"/><rect fill="#F1F1F1" height="2" style="stroke:#181818;stroke-width:0.5;" width="4" x="360" y="52"/><text fill="#000000" font-family="sans-serif" font-size="14" lengthAdjust="spacing" textLength="60" x="297" y="73.9951">desktop</text></g><g id="elem_GMN18"><path d="M417.5,51.5 L417.5,60 L382.449,64 L417.5,68 L417.5,76.6328 A0,0 0 0 0 417.5,76.6328 L492.5,76.6328 A0,0 0 0 0 492.5,76.6328 L492.5,61.5 L482.5,51.5 L417.5,51.5 A0,0 0 0 0 417.5,51.5 " fill="#FEFFDD" style="stroke:#181818;stroke-width:0.5;"/><path d="M482.5,51.5 L482.5,61.5 L492.5,61.5 L482.5,51.5 " fill="#FEFFDD" style="stroke:#181818;stroke-width:0.5;"/><text fill="#000000" font-family="sans-serif" font-size="13" lengthAdjust="spacing" textLength="54" x="423.5" y="68.5669">drawpile</text></g><g id="elem_GMN21"><path d="M22,51.5 L22,76.6328 A0,0 0 0 0 22,76.6328 L122,76.6328 A0,0 0 0 0 122,76.6328 L122,69.5 L156.699,64 L122,61.5 L122,61.5 L112,51.5 L22,51.5 A0,0 0 0 0 22,51.5 " fill="#FEFFDD" style="stroke:#181818;stroke-width:0.5;"/><path d="M112,51.5 L112,61.5 L122,61.5 L112,51.5 " fill="#FEFFDD" style="stroke:#181818;stroke-width:0.5;"/><text fill="#000000" font-family="sans-serif" font-size="13" lengthAdjust="spacing" textLength="79" x="28" y="68.5669">drawpile-srv</text></g><g id="elem_GMN24"><path d="M22.5,253 L22.5,308.3984 A0,0 0 0 0 22.5,308.3984 L165.5,308.3984 A0,0 0 0 0 165.5,308.3984 L165.5,263 L155.5,253 L102.939,253 L109.904,193.218 L94.939,253 L22.5,253 A0,0 0 0 0 22.5,253 " fill="#FEFFDD" style="stroke:#181818;stroke-width:0.5;"/><path d="M155.5,253 L155.5,263 L165.5,263 L155.5,253 " fill="#FEFFDD" style="stroke:#181818;stroke-width:0.5;"/><text fill="#000000" font-family="sans-serif" font-size="13" lengthAdjust="spacing" textLength="60" x="28.5" y="270.0669">dprectool</text><text fill="#000000" font-family="sans-serif" font-size="13" lengthAdjust="spacing" textLength="87" x="28.5" y="285.1997">drawpile-cmd</text><text fill="#000000" font-family="sans-serif" font-size="13" lengthAdjust="spacing" textLength="122" x="28.5" y="300.3325">drawpile-timelapse</text></g><!--link tools to drawdance--><g id="link_tools_drawdance"><path d="M143.693,193.218 C168.715,211.942 199.532,235.0013 224.543,253.7166 " fill="none" id="tools-to-drawdance" style="stroke:#181818;stroke-width:1.0;"/><polygon fill="#181818" points="229.347,257.3113,224.5375,248.7166,225.3437,254.3157,219.7446,255.1219,229.347,257.3113" style="stroke:#181818;stroke-width:1.0;"/></g><!--link libclient to libshared--><g id="link_libclient_libshared"><path d="M397.253,193.218 C399.151,211.942 401.2479,232.6266 403.1449,251.3419 " fill="none" id="libclient-to-libshared" style="stroke:#181818;stroke-width:1.0;"/><polygon fill="#181818" points="403.75,257.3113,406.822,247.9538,403.2458,252.3368,398.8628,248.7606,403.75,257.3113" style="stroke:#181818;stroke-width:1.0;"/></g><!--link libclient to drawdance--><g id="link_libclient_drawdance"><path d="M367.15,193.218 C343.681,211.942 314.9612,234.8541 291.5032,253.5694 " fill="none" id="libclient-to-drawdance" style="stroke:#181818;stroke-width:1.0;"/><polygon fill="#181818" points="286.813,257.3113,296.3429,254.8252,290.7215,254.193,291.3537,248.5716,286.813,257.3113" style="stroke:#181818;stroke-width:1.0;"/></g><!--link libserver to libshared--><g id="link_libserver_libshared"><path d="M289.102,193.218 C314.554,212.004 345.9935,235.2099 371.3615,253.9338 " fill="none" id="libserver-to-libshared" style="stroke:#181818;stroke-width:1.0;"/><polygon fill="#181818" points="376.189,257.4969,371.3232,248.9339,372.1661,254.5276,366.5724,255.3706,376.189,257.4969" style="stroke:#181818;stroke-width:1.0;"/></g><!--link libserver to drawdance--><g id="link_libserver_drawdance"><path d="M259,193.218 C259,211.942 259,232.596 259,251.3113 " fill="none" id="libserver-to-drawdance" style="stroke:#181818;stroke-width:1.0;"/><polygon fill="#181818" points="259,257.3113,263,248.3113,259,252.3113,255,248.3113,259,257.3113" style="stroke:#181818;stroke-width:1.0;"/></g><!--link desktop to libclient--><g id="link_desktop_libclient"><path d="M345.361,87.056 C356.052,104.705 367.8632,124.2032 378.5502,141.8442 " fill="none" id="desktop-to-libclient" style="stroke:#181818;stroke-width:1.0;"/><polygon fill="#181818" points="381.659,146.976,380.4169,137.2058,379.0683,142.6995,373.5745,141.3509,381.659,146.976" style="stroke:#181818;stroke-width:1.0;"/></g><!--link desktop to libserver--><g id="link_desktop_libserver"><path d="M316.519,87.056 C304.13,104.705 290.2892,124.4241 277.9062,142.0651 " fill="none" id="desktop-to-libserver" style="stroke:#181818;stroke-width:1.0;stroke-dasharray:7.0,7.0;"/><polygon fill="#181818" points="274.459,146.976,282.9037,141.9078,277.3316,142.8836,276.3558,137.3115,274.459,146.976" style="stroke:#181818;stroke-width:1.0;"/></g><!--link thinsrv to libserver--><g id="link_thinsrv_libserver"><path d="M214.088,87.056 C223.761,104.705 234.3774,124.0734 244.0454,141.7144 " fill="none" id="thinsrv-to-libserver" style="stroke:#181818;stroke-width:1.0;"/><polygon fill="#181818" points="246.929,146.976,246.1114,137.1611,244.526,142.5913,239.0958,141.0059,246.929,146.976" style="stroke:#181818;stroke-width:1.0;"/></g><!--SRC=[RL0x4eCW4EqznLv03v32AhT8KY2ioeZ0m8ufChbx41Hq8XMFzrlMCZwn0U7ksDjAXV2f89o725WmpV6LC1cZ_7PNilCZSoWAvagYfWEFRa6tUqUflLis9D1FP6n2CHRgkeLS6DzpPEHouGNtvqlLrxu3T_PjG-skb7zYcgOj2MdszAtSL1Xj2C79OIGmVKwunSvroKMai8-QFQjewW2BhZD4PexAkB6Wimxv2fuwM_Wi3eZaZ8fPZzNt1m00]--></g></svg>